<svg xmlns="http://www.w3.org/2000/svg" width="18.229" height="21.518" viewBox="0 0 18.229 21.518"><defs><style>.a{fill:#ff5400;stroke:#ff5400;stroke-width:0.5px;}</style></defs><g transform="translate(-39.75 0.253)"><path class="a" d="M57.222,3.4,49.179.063a.821.821,0,0,0-.629,0L40.506,3.4A.821.821,0,0,0,40,4.16V8.22a13.745,13.745,0,0,0,8.554,12.731.821.821,0,0,0,.62,0A13.745,13.745,0,0,0,57.729,8.22V4.16A.821.821,0,0,0,57.222,3.4ZM56.087,8.22A12.106,12.106,0,0,1,48.864,19.3,12.107,12.107,0,0,1,41.642,8.22V4.708l7.223-3,7.223,3Zm-8.13,2.767,3.528-3.528A.821.821,0,1,1,52.646,8.62l-4.108,4.108a.821.821,0,0,1-1.161,0l-2.294-2.294a.821.821,0,0,1,1.161-1.161Z" transform="translate(0 0)"/></g></svg>